<svg width="595" height="528" viewBox="0 0 595 528" fill="none" xmlns="http://www.w3.org/2000/svg">
<g clip-path="url(#clip0_0_1)">
<g opacity="0.86">
<path d="M346.296 61.1779C364.138 40.9784 389.261 27.0588 418.189 23.7902C480.03 16.8539 535.81 61.2484 542.772 122.938C549.735 184.656 505.241 240.337 443.401 247.3C381.561 254.264 325.781 209.87 318.818 148.152C315.123 115.305 325.991 84.1712 346.296 61.1779Z" fill="#008753"/>
<path d="M346.297 61.1779C346.297 61.1779 196.79 -34.3292 242.55 62.7596C316.89 139.792 503.967 322.877 592.881 314.52C605.263 297.897 540.523 196.401 526.535 196.006C518.576 209.307 506.443 218.38 506.443 218.38C506.443 218.38 560.926 275.105 547.476 270.677C534.052 266.22 496.47 241.679 496.47 241.679C496.47 241.679 278.583 73.6194 290.369 72.2939C302.155 70.9683 329.942 85.0437 329.942 85.0437L346.298 61.2054L346.297 61.1779Z" fill="#F5BC18"/>
</g>
<g clip-path="url(#clip1_0_1)">
<path d="M307.924 246.166L311.573 251.716C313.678 254.93 317.038 257.068 320.749 257.575L327.191 258.46L321.841 262.053C318.743 264.125 316.729 267.505 316.321 271.282L315.595 277.857L311.946 272.308C309.842 269.094 306.481 266.956 302.77 266.449L296.328 265.564L301.678 261.971C304.776 259.899 306.79 256.519 307.198 252.742L307.91 246.184L307.924 246.166Z" fill="#2C699D"/>
</g>
</g>
<path d="M237 166.277L217.096 169.403C205.581 171.189 195.438 177.951 189.345 187.839L178.755 205L175.629 185.096C173.843 173.581 167.081 163.438 157.193 157.345L140 146.692L159.904 143.566C171.419 141.779 181.562 135.017 187.655 125.129L198.245 107.968L201.371 127.872C203.157 139.387 209.919 149.53 219.807 155.623L236.968 166.213L237 166.277Z" fill="#2C699D"/>
<g clip-path="url(#clip2_0_1)">
<path d="M333 397.85L320.073 399.88C312.594 401.04 306.006 405.432 302.049 411.854L295.171 423L293.141 410.073C291.981 402.594 287.589 396.006 281.166 392.049L270 385.13L282.927 383.099C290.406 381.939 296.994 377.547 300.951 371.125L307.829 359.979L309.859 372.907C311.019 380.385 315.411 386.973 321.834 390.93L332.979 397.808L333 397.85Z" fill="#2C699D"/>
</g>
<path d="M88.5913 341.419L74.7175 381.153L97.8404 379.735L104.944 346.393L88.5913 341.419Z" fill="#F0D0B4" stroke="#2C699D" stroke-miterlimit="10"/>
<path d="M136.244 506.952C136.244 506.952 113.831 512.871 116.687 519.289C119.542 525.708 142.289 521.762 143.71 517.803C144.142 516.622 144.337 515.358 144.42 514.149C144.602 511.19 142.596 508.55 139.712 507.814L136.244 506.938V506.952Z" fill="#2C699D"/>
<path d="M98.7599 502.937C98.7599 502.937 72.5865 503.646 81.3899 511.454C90.1933 519.261 104.137 519.261 106.101 514.649C108.065 510.037 107.076 503.66 107.076 503.66L98.7599 502.951V502.937Z" fill="#2C699D"/>
<path d="M97.0465 388.599L90.3604 502.312C90.3604 502.312 101.755 522.096 112.759 498.353C119.445 474.624 119.445 439.016 119.445 439.016L127.705 510.703C127.705 510.703 125.741 520.095 142.248 510.203C151.288 481.528 156.4 390.058 156.4 390.058C156.4 390.058 99.8045 382.153 97.0465 388.571V388.599Z" fill="#F5BC18"/>
<path d="M116.325 291.405C116.325 291.405 129.488 269.412 159.715 295.836C150.828 332.903 136.244 394.087 136.244 394.087C136.244 394.087 102.103 401.186 102.284 386.64C102.465 372.275 116.339 291.405 116.339 291.405H116.325Z" fill="white"/>
<path d="M134.489 277.095C134.489 277.095 115.99 286.223 106.881 287.584C104.917 287.876 103.134 288.904 101.991 290.516C94.2048 301.574 76.389 339.585 87.5465 347.56C94.6645 349.213 98.2165 351.811 99.1637 347.796C100.111 343.781 87.5465 376.651 87.5465 376.651V408.341L107.702 386.821C107.702 386.821 120.74 305.951 120.977 302.866C121.214 299.782 123.582 286.556 123.582 286.556L134.489 277.095Z" fill="#2C699D"/>
<path d="M124.181 279.818C124.181 279.818 119.919 304.645 128.68 307.729C138.166 310.327 149.073 308.91 155.94 301.574C159.256 294.711 154.756 287.862 154.756 287.862C154.756 287.862 135.784 283.139 136.258 281.944C136.732 280.749 124.167 279.818 124.167 279.818H124.181Z" fill="#F0D0B4"/>
<path d="M149.909 282.305C149.909 282.305 158.448 279.943 162.947 290.349C167.683 293.183 189.733 306.423 184.76 321.33C184.356 326.151 184.579 329.138 185.053 330.985C186.474 336.543 186.32 342.392 184.412 347.81C183.952 349.102 183.507 350.06 183.103 350.422C182.866 355.618 182.629 365.551 179.314 364.134C175.762 362.717 178.367 350.185 163.198 354.437C167.46 361.772 165.802 399.13 160.119 402.909C154.673 406.688 141.858 411.661 141.858 411.661L125.741 412.37C125.741 412.37 139.016 351.116 140.2 348.991C139.74 343.559 142.317 306.84 148.989 300.046C149.547 299.476 150.076 298.879 150.466 298.198C152.096 295.336 153.893 294.545 154.283 292.419C154.798 289.668 152.653 287.154 149.867 286.89C144.699 286.389 135.924 285.625 135.924 285.625L149.909 282.319V282.305Z" fill="#2C699D"/>
<path d="M119.208 256.075C118.609 258.479 117.941 261.952 118.442 264.369C118.512 264.744 118.554 265.106 118.498 265.481C118.094 268.509 118.038 272.608 120.713 278.165C123.68 284.319 128.653 291.405 129.6 291.405C130.547 291.405 147.499 286.917 148.098 280.652C148.335 278.234 148.446 276.678 148.516 275.72C148.572 274.886 148.976 274.122 149.616 273.594C151.65 271.927 155.704 267.94 152.932 264.591C152.291 263.813 151.274 263.383 150.257 263.494C150.062 263.522 149.881 263.55 149.714 263.591C148.307 263.952 146.858 263.147 146.287 261.813L142.262 252.366C141.704 251.06 140.325 250.324 138.932 250.574C134.628 251.352 125.964 252.991 125.783 253.699C125.658 254.2 124.07 254.075 122.593 253.852C121.117 253.63 119.571 254.575 119.194 256.089L119.208 256.075Z" fill="#F0D0B4"/>
<path d="M119.208 256.075C118.331 259.187 118.15 262.383 118.512 265.536C118.261 267.426 118.247 269.357 118.54 271.246C119.32 276.317 122.05 280.804 124.71 285.111C126.103 287.195 127.468 289.46 129.321 291.141C129.446 291.238 129.53 291.294 129.683 291.28C134.475 290.182 139.197 288.446 143.418 285.931C145.437 284.625 147.805 282.902 147.945 280.304L148.279 276.498C148.349 275.886 148.321 275.192 148.641 274.567C148.906 273.941 149.463 273.483 149.937 273.094C151.72 271.482 153.767 269.412 153.726 266.856C153.67 265.036 151.984 263.188 150.076 263.605C147.833 264.272 146.343 262.674 145.744 260.688L144.253 257.159L142.763 253.63C142.192 251.755 140.883 250.087 138.696 250.629C137.512 250.838 134.266 251.449 133.04 251.685C130.853 252.144 128.639 252.546 126.521 253.255C126.243 253.38 125.881 253.449 125.755 253.769C124.613 254.38 123.206 253.727 121.966 253.769C120.685 253.811 119.501 254.769 119.194 256.02L119.208 256.075ZM119.208 256.075C119.501 254.825 120.685 253.852 121.98 253.797C123.192 253.741 124.613 254.38 125.727 253.783C125.853 253.463 126.229 253.38 126.507 253.255C128.625 252.533 130.839 252.116 133.026 251.643C134.266 251.393 137.47 250.768 138.682 250.546C140.896 249.976 142.317 251.671 142.902 253.602L144.407 257.117L145.911 260.632C146.496 262.521 147.889 264.064 150.02 263.397C152.082 262.938 153.921 264.883 153.976 266.856C154.032 269.537 151.97 271.649 150.132 273.33C149.616 273.747 149.171 274.136 148.92 274.706C148.641 275.247 148.669 275.873 148.599 276.525L148.293 280.346C148.126 283.055 145.674 284.847 143.571 286.195C139.295 288.723 134.545 290.432 129.697 291.502C129.53 291.53 129.293 291.419 129.196 291.321C127.287 289.557 125.992 287.334 124.571 285.195C121.925 280.86 119.208 276.345 118.456 271.246C118.164 269.343 118.191 267.412 118.456 265.522C118.122 262.369 118.303 259.159 119.208 256.061V256.075Z" fill="#603913"/>
<path d="M123.916 242.807C123.916 242.807 110.043 251.324 117.161 261.841C119.18 257.589 120.476 253.213 120.476 253.213C120.476 253.213 123.554 258.77 125.449 260.187C127.343 261.605 126.521 251.324 126.995 251.199C127.468 251.074 130.672 265.508 135.297 268.94C133.166 262.438 132.567 255.103 132.567 255.103C132.567 255.103 135.882 268.343 142.638 268.343C138.96 261.605 138.612 253.797 139.559 256.395C140.506 258.993 145.368 266.675 145.841 267.037C146.315 267.398 150.577 264.55 150.577 264.55C150.577 264.55 155.787 267.981 149.268 274.011C151.162 279.693 151.525 278.498 152.235 277.554C152.945 276.609 160.774 261.243 156.86 256.159C154.84 254.38 151.761 244.808 150.452 243.738C149.143 242.669 132.19 233.569 123.902 242.794L123.916 242.807Z" fill="#754C29"/>
<path d="M122.119 270.051C122.735 270.051 123.234 269.554 123.234 268.94C123.234 268.326 122.735 267.828 122.119 267.828C121.504 267.828 121.005 268.326 121.005 268.94C121.005 269.554 121.504 270.051 122.119 270.051Z" fill="#2C699D"/>
<path d="M131.16 270.274C131.775 270.274 132.274 269.776 132.274 269.162C132.274 268.548 131.775 268.051 131.16 268.051C130.544 268.051 130.045 268.548 130.045 269.162C130.045 269.776 130.544 270.274 131.16 270.274Z" fill="#2C699D"/>
<path d="M125.992 269.704C125.671 271.121 124.975 273.247 124.891 274.65C124.919 275.053 124.836 275.136 125.295 275.289C126.452 275.595 127.831 275.803 129.015 275.553C127.844 276.192 126.382 276.164 125.1 275.914C122.899 275.303 125.295 270.954 125.992 269.704Z" fill="#231F20"/>
<path d="M125.281 282.124C127.357 283.027 128.917 282.597 131.034 282.777C129.655 284.625 125.88 284.639 125.281 282.124Z" fill="#E11F2E"/>
<path d="M127.287 278.457C127.287 278.457 125.811 277.984 122.663 280.763C119.515 283.541 126.995 280.888 127.232 280.402C127.468 279.915 132.149 282.472 133.333 282.347C134.517 282.222 130.254 277.262 127.287 278.443V278.457Z" fill="#231F20"/>
<path d="M124.738 265.925C122.705 266.106 121.409 265.133 119.584 264.689C120.908 263.147 123.819 264.411 124.738 265.925Z" fill="#2C699D"/>
<path d="M127.287 265.161C127.496 263.577 130.143 262.688 130.728 264.397C129.349 264.633 128.847 265.3 127.287 265.161Z" fill="#2C699D"/>
<path d="M161.79 370.024C161.79 370.024 175.372 368.83 180.163 363.522C182.963 360.202 181.626 351.172 170.315 350.116C170.315 350.116 161.261 356.354 160.202 355.562C159.826 354.311 154.282 348.379 148.418 358.688C147.903 359.605 148.655 360.716 149.7 360.535C152.402 360.091 156.455 359.299 157.277 358.743C158.043 358.229 151.469 359.466 146.663 360.424C144.838 360.786 144.448 363.217 146.064 364.134C148.836 365.69 152.667 367.426 156.609 367.913C148.669 366.079 143.989 364.592 141.704 363.786C141.161 363.592 140.715 364.231 141.063 364.689C142.665 366.773 145.395 369.608 149.56 370.163C145.033 368.441 144.309 369.219 144.309 369.621C144.309 370.024 146.231 374.942 150.758 374.942C155.285 374.942 161.54 371.886 161.804 370.024C162.069 368.163 164.061 362.328 164.061 362.328" fill="#F0D0B4"/>
<path d="M161.791 369.955C168.059 368.83 175.33 367.774 179.899 363.022C181.668 360.466 180.86 356.687 178.826 354.464C176.723 352.089 173.463 351.047 170.26 350.699L170.664 350.602C168.226 352.228 165.774 353.825 163.156 355.159C162.473 355.492 161.791 355.826 161.038 356.02C160.76 356.048 160.495 356.229 159.938 355.923L159.84 355.868C159.562 354.964 158.559 354.117 157.695 353.645C154.631 351.936 151.511 354.45 149.783 357.007C149.352 357.813 148.237 358.771 148.585 359.702C148.766 360.119 149.226 360.383 149.7 360.299L151.33 360.021C153.252 359.619 155.272 359.341 157.082 358.577C157.082 358.577 157.166 358.521 157.152 358.549C157.11 358.549 157.096 358.771 157.152 358.799C157.194 358.882 157.319 358.868 157.152 358.868C153.948 359.174 150.396 360.063 147.192 360.688C146.148 360.799 145.423 361.466 145.479 362.481C145.535 363.578 146.58 363.87 147.443 364.342C150.354 365.773 153.489 366.954 156.692 367.315L156.483 368.482C152.026 367.51 147.582 366.384 143.195 365.023L141.551 364.481C141.37 364.426 141.537 364.481 141.551 364.453C141.635 364.426 141.662 364.398 141.649 364.314C141.649 364.287 141.579 364.189 141.704 364.356C143.668 366.885 146.412 369.038 149.644 369.455L149.296 370.844C147.847 370.33 146.343 369.691 144.964 369.844C144.88 369.858 144.894 369.913 144.964 369.774C144.992 369.691 145.006 369.594 144.992 369.58C146.245 373.442 149.686 375.234 153.628 374.137C156.302 373.525 159.325 372.525 161.247 370.524C161.804 369.496 162.013 367.676 162.543 366.454C163.002 365.065 163.49 363.675 164.005 362.3L164.131 362.342C163.392 364.787 162.612 367.232 162.125 369.733C162.097 370.066 161.972 370.58 161.721 370.872C160.732 372.136 159.367 372.831 158.044 373.511C155.272 374.748 152.36 375.804 149.24 375.29C146.844 374.762 145.047 372.9 144.003 370.788C143.822 370.413 143.627 369.997 143.599 369.58C143.585 368.996 144.225 368.538 144.56 368.482C146.454 368.121 148.223 368.968 149.811 369.469L156.414 371.761L149.449 370.858C145.646 370.316 142.039 367.815 140.228 364.509C140.047 363.536 141.133 362.717 142.011 363.133C146.816 364.828 151.775 366.093 156.734 367.315L156.525 368.482C152.541 367.899 148.878 366.371 145.479 364.259C144.407 363.397 144.337 361.661 145.326 360.702C145.772 360.216 146.524 360.021 147.025 359.966L150.299 359.382C152.569 359.021 154.798 358.549 157.124 358.368C157.236 358.41 157.208 358.285 157.514 358.507C157.612 358.604 157.556 358.841 157.417 358.91C155.536 359.785 153.405 359.994 151.399 360.424L149.755 360.716C149.129 360.855 148.404 360.48 148.14 359.883C148 359.591 147.959 359.243 148.042 358.924C148.878 357.118 150.076 355.52 151.538 354.145C154.185 351.408 158.879 351.894 160.634 355.409L160.467 355.173C163.741 354.048 166.944 351.547 169.967 349.602L170.148 349.477C171.931 349.644 173.728 349.963 175.414 350.672C180.372 352.45 184.008 358.882 180.707 363.634C178.311 366.273 174.996 367.426 171.722 368.413C169.006 369.08 164.256 370.219 161.777 369.941L161.791 369.955Z" fill="#2C699D"/>
<path d="M155.926 364.203C143.655 365.801 114.821 369.038 100.64 366.384C99.5121 366.176 99.4424 364.564 100.557 364.273C110.335 361.703 131.814 357.729 155.968 362.217C157.11 362.425 157.083 364.064 155.926 364.217V364.203Z" fill="#F0D0B4" stroke="#2C699D" stroke-width="0.5" stroke-miterlimit="10"/>
<path d="M110.642 365.509C112.439 365.509 112.439 362.731 110.642 362.731C108.845 362.731 108.845 365.509 110.642 365.509Z" fill="#E11F2E"/>
<path d="M110.99 365.162H112.062C112.257 365.162 112.439 365.134 112.606 365.037C112.773 364.981 112.926 364.884 113.051 364.745C113.191 364.62 113.288 364.467 113.344 364.3C113.428 364.134 113.469 363.953 113.469 363.759L113.414 363.384C113.344 363.147 113.233 362.939 113.051 362.772L112.773 362.55C112.55 362.425 112.327 362.355 112.076 362.355H111.004C110.809 362.355 110.628 362.383 110.461 362.481C110.293 362.536 110.14 362.633 110.015 362.772C109.876 362.897 109.778 363.05 109.722 363.217C109.639 363.384 109.597 363.564 109.597 363.759L109.653 364.134C109.722 364.37 109.834 364.578 110.015 364.745L110.293 364.967C110.516 365.092 110.739 365.162 110.99 365.162Z" fill="#E11F2E"/>
<path d="M121.312 361.675H119.529C119.167 361.675 118.79 361.828 118.54 362.078C118.4 362.203 118.303 362.356 118.247 362.522C118.164 362.689 118.122 362.87 118.122 363.064C118.136 363.425 118.261 363.8 118.526 364.05C118.79 364.301 119.139 364.453 119.515 364.453H121.298C121.66 364.453 122.036 364.301 122.287 364.05C122.426 363.925 122.524 363.773 122.579 363.606C122.663 363.439 122.705 363.259 122.705 363.064C122.691 362.703 122.565 362.328 122.301 362.078C122.036 361.828 121.688 361.675 121.312 361.675Z" fill="#F5BC18"/>
<path d="M130.561 360.244H128.43C128.067 360.244 127.691 360.397 127.441 360.647C127.19 360.897 127.023 361.286 127.037 361.633C127.051 361.98 127.176 362.369 127.441 362.619C127.705 362.87 128.054 363.022 128.43 363.022H130.561C130.923 363.022 131.299 362.87 131.55 362.619C131.801 362.369 131.968 361.98 131.954 361.633C131.94 361.286 131.815 360.897 131.55 360.647C131.285 360.397 130.937 360.244 130.561 360.244Z" fill="#2C699D"/>
<path d="M142.289 361.675H138.737C138.013 361.675 137.316 362.314 137.344 363.064C137.372 363.814 137.957 364.453 138.737 364.453H142.289C143.014 364.453 143.71 363.814 143.682 363.064C143.654 362.314 143.069 361.675 142.289 361.675Z" fill="#008753"/>
<path d="M124.599 246.086C121.339 248.768 118.247 251.421 117.662 255.756C116.074 251.296 120.378 246.864 124.599 246.086Z" fill="#3C2415"/>
<path d="M130.38 244.141C131.745 249.268 131.828 254.422 132.163 259.66C129.948 254.867 129.837 249.337 130.38 244.141Z" fill="#3C2415"/>
<path d="M124.864 250.699C124.362 253.324 124.613 255.297 125.226 257.798C122.788 256.409 122.468 252.296 124.864 250.699Z" fill="#3C2415"/>
<path d="M136.063 242.905C136.091 250.601 135.589 258.715 139.35 265.689C133.834 259.701 134.113 250.31 136.063 242.905Z" fill="#3C2415"/>
<path d="M142.652 244.933C150.884 247.378 157.96 255.867 155.899 264.703C155.843 256.02 149.811 249.184 142.652 244.933Z" fill="#3C2415"/>
<path d="M142.554 250.532C143.975 254.825 143.794 259.41 146.106 263.3C142.317 260.979 141.913 254.519 142.554 250.532Z" fill="#3C2415"/>
<path d="M147.805 253.547C152.945 258.59 157.598 268.606 151.19 274.386C155.648 267.62 151.176 259.785 147.805 253.547Z" fill="#3C2415"/>
<path d="M141.398 241.835C137.386 241.585 133.514 240.793 129.613 241.529C128.388 241.793 127.218 242.321 126.368 243.433C128.332 237.973 137.4 239.779 141.398 241.835Z" fill="#3C2415"/>
<path d="M80.4148 291.294L88.7585 289.39L87.1288 431.639L81.2366 431.153L80.4148 291.294Z" fill="#E11F2E"/>
<path d="M26.4939 348.338L25.5188 357.465L54.1995 370.914L54.3946 360.841L26.4939 348.338Z" fill="#F5BC18"/>
<path d="M26.4939 348.338L31.2438 347.518L53.6424 357.701L54.3946 360.841L26.4939 348.338Z" fill="#2C699D"/>
<path d="M80.4148 291.294L8.8313 271.58L11.6729 414.204C11.6729 414.204 81.0973 431.889 81.2366 431.139C81.3759 430.389 80.4148 291.28 80.4148 291.28V291.294Z" fill="#951B1D"/>
<path d="M8.8313 271.58L15.2528 270.246L88.7585 289.39L80.4148 291.294L8.8313 271.58Z" fill="#F1A894"/>
<path d="M44.7832 239.64L37.6792 239.612L34.8794 527.236L43.7803 528L44.7832 239.64Z" fill="#803A2B"/>
<path d="M46.984 239.876L43.0698 239.626L43.7802 528L46.6218 526.472L46.984 239.876Z" fill="#E11F2E"/>
<path d="M29.5583 304.909L23.9587 312.855L0 510.453L5.72501 512.357L29.5583 304.909Z" fill="#803A2B"/>
<path d="M29.4748 305.339L33.3751 305.214L8.31598 511.245L5.7251 512.648L29.4748 305.339Z" fill="#E11F2E"/>
<path d="M50.9539 314.703L60.3005 312.703C60.3005 312.703 62.0974 320.302 64.0476 339.557C64.2426 370.191 77.3363 518.428 77.3363 518.428L71.0819 518.497L56.8739 329.457C56.8739 329.457 58.6151 312.077 50.9399 314.689L50.9539 314.703Z" fill="#E11F2E"/>
<path d="M50.759 313.981L68.3241 519.609L74.1884 519.414L57.2223 324.15C57.2223 324.15 55.0911 312.758 50.759 313.981Z" fill="#803A2B"/>
<g clip-path="url(#clip3_0_1)">
<path opacity="0.96" d="M481.87 331.49C490.43 323.73 501.79 319 514.26 319C540.91 319 562.52 340.6 562.52 367.26C562.52 393.92 540.92 415.52 514.26 415.52C487.6 415.52 466 393.91 466 367.26C466 353.07 472.12 340.32 481.87 331.49Z" fill="#E11F2E"/>
</g>
<defs>
<clipPath id="clip0_0_1">
<rect width="315" height="344" fill="white" transform="translate(576.411) rotate(86.6458)"/>
</clipPath>
<clipPath id="clip1_0_1">
<rect width="32" height="31" fill="white" transform="translate(304.359 283.02) rotate(-114.675)"/>
</clipPath>
<clipPath id="clip2_0_1">
<rect width="63" height="63" fill="white" transform="translate(270 360)"/>
</clipPath>
<clipPath id="clip3_0_1">
<rect width="96.51" height="96.51" fill="white" transform="translate(466 319)"/>
</clipPath>
</defs>
</svg>
